<svg width="350" height="350" viewBox="0 0 350 350" fill="none" xmlns="http://www.w3.org/2000/svg">
<rect width="350" height="350" rx="20" fill="white"/>
<path d="M306.25 115.968V173.382C305.792 175 305.273 176.618 304.754 178.205C304.733 178.23 304.722 178.263 304.724 178.296C304.724 178.327 304.724 178.327 304.693 178.357C298.262 197.48 287.424 214.822 273.055 228.984C258.687 243.146 241.189 253.731 221.976 259.885C218.71 260.923 215.413 261.838 212.056 262.601C212.016 262.617 211.975 262.627 211.934 262.632C202.452 264.806 192.756 265.902 183.028 265.898H181.716C197.375 264.736 212.469 259.547 225.533 250.835C238.598 242.124 249.19 230.185 256.284 216.176V216.145C262.265 204.364 265.61 191.422 266.084 178.218C266.558 165.014 264.152 151.864 259.031 139.684C258.359 136.541 257.566 133.427 256.65 130.375C256.284 129.093 255.856 127.78 255.429 126.498C255.185 125.705 254.91 124.911 254.635 124.148C254.3 123.232 253.994 122.286 253.598 121.371C253.353 120.73 253.109 120.058 252.835 119.387C252.346 118.166 251.827 116.914 251.308 115.663C250.698 114.289 250.118 112.916 249.446 111.573C249.08 110.84 248.744 110.138 248.348 109.405C248.042 108.703 247.646 107.971 247.279 107.269C246.913 106.567 246.516 105.804 246.089 105.071C245.54 103.972 244.899 102.935 244.288 101.897C243.464 100.462 242.579 99.0581 241.724 97.654C241.633 97.6235 241.633 97.593 241.602 97.5014C240.686 96.0668 239.74 94.6322 238.733 93.2892C237.787 91.8851 236.779 90.4811 235.711 89.138C234.704 87.795 233.666 86.4215 232.537 85.109C232.442 85.0382 232.368 84.9432 232.323 84.8343C231.316 83.6133 230.308 82.4229 229.21 81.263C228.08 79.9811 226.951 78.7601 225.73 77.5392C224.57 76.2878 223.38 75.0973 222.098 73.9069C220.968 72.8081 219.778 71.7094 218.527 70.6411L218.343 70.4579C217.702 69.9085 217.061 69.3285 216.42 68.8096C215.749 68.2297 215.077 67.6802 214.406 67.1613C213.124 66.093 211.75 65.0247 210.377 64.0174C209.675 63.468 208.973 62.9186 208.24 62.4303C207.508 61.9419 206.775 61.423 206.073 60.9041C205.768 60.6904 205.463 60.5073 205.157 60.2936C203.845 59.4084 202.471 58.5233 201.098 57.6687C199.511 56.6614 197.893 55.7152 196.245 54.7995C195.604 54.4332 194.993 54.0669 194.322 53.7617C193.681 53.3954 193.07 53.0901 192.399 52.7544C191.787 52.4026 191.155 52.0867 190.506 51.8082C189.072 51.0756 187.576 50.3736 186.08 49.7021C185.653 49.4884 185.195 49.2748 184.737 49.0917C183.669 48.6033 182.57 48.2065 181.471 47.7486C181.269 47.6409 181.054 47.5588 180.831 47.5044C180.067 47.1686 179.304 46.8634 178.511 46.5887C177.778 46.314 177.046 46.0393 176.252 45.7951L176.191 45.7645L176.16 45.7341C175.428 45.4594 174.665 45.2152 173.871 44.971C172.589 44.5132 171.277 44.1469 169.995 43.7501H234.002C243.491 43.7352 252.89 45.5928 261.661 49.2165C270.431 52.8401 278.4 58.1585 285.111 64.8672C291.823 71.5758 297.144 79.5428 300.772 88.3115C304.399 97.0802 306.261 106.479 306.25 115.968Z" fill="url(#paint0_linear)"/>
<path d="M306.249 173.382V234.001C306.266 243.493 304.408 252.896 300.783 261.668C297.158 270.441 291.836 278.412 285.124 285.124C278.412 291.836 270.441 297.158 261.668 300.783C252.896 304.408 243.494 306.266 234.001 306.25H156.961C155.313 305.395 153.664 304.51 152.047 303.564H152.016C151.986 303.533 151.986 303.533 151.955 303.533C123.442 287.089 102.291 260.37 92.8318 228.843C91.0435 222.888 89.7068 216.807 88.8333 210.651V210.59C88.406 207.69 88.0702 204.729 87.8565 201.769C93.5876 220.408 105.144 236.718 120.829 248.304C136.513 259.891 155.5 266.143 175 266.142C177.289 266.142 179.517 266.081 181.715 265.898H183.028C192.755 265.902 202.452 264.806 211.933 262.632C211.975 262.627 212.016 262.617 212.055 262.601C215.413 261.838 218.709 260.923 221.975 259.885C241.189 253.731 258.686 243.146 273.055 228.984C287.424 214.822 298.261 197.48 304.693 178.357C304.723 178.327 304.723 178.327 304.723 178.296C304.722 178.263 304.733 178.23 304.754 178.205C305.273 176.618 305.785 175 306.249 173.382Z" fill="url(#paint1_linear)"/>
<path d="M156.96 306.25H115.998C96.837 306.249 78.4609 298.637 64.9119 285.088C51.3629 271.539 43.7508 253.163 43.75 234.002L43.75 171.795C44.9709 168.651 46.314 165.538 47.7791 162.516L47.8401 162.455C48.6337 160.807 49.4578 159.189 50.343 157.602C50.8619 156.625 51.4114 155.648 51.9303 154.672C53.0291 152.84 54.0974 151.039 55.2573 149.269C56.3561 147.56 57.4549 145.881 58.6453 144.202C59.8357 142.523 61.0871 140.906 62.3386 139.288C63.59 137.67 64.9026 136.114 66.2151 134.587C67.5276 133.061 68.9011 131.535 70.3357 130.039C71.7703 128.544 73.1743 127.109 74.6699 125.705C77.6001 122.897 80.683 120.211 83.8879 117.678C87.0318 115.175 90.2977 112.855 93.6553 110.657C93.7432 110.6 93.8351 110.549 93.93 110.505C95.6088 109.406 97.3486 108.368 99.0579 107.33C99.1586 107.298 99.252 107.246 99.3326 107.178L101.805 105.804C103.942 104.644 106.078 103.545 108.276 102.508C109.314 101.989 110.382 101.531 111.45 101.042C112.763 100.462 114.106 99.8825 115.418 99.3636C116.67 98.8752 117.952 98.3869 119.234 97.8985L119.295 97.868C120.088 97.5933 120.912 97.288 121.706 97.0133C122.835 96.6471 124.026 96.2502 125.186 95.9145C125.996 95.6184 126.822 95.3639 127.658 95.1514C129.673 94.5715 131.718 94.0221 133.763 93.5642C133.626 93.6832 133.484 93.7956 133.335 93.9C114.315 103.699 99.3402 119.868 91.0275 139.584C82.7149 159.3 81.5925 181.31 87.8559 201.769C88.0696 204.73 88.4053 207.691 88.8326 210.59V210.651C89.7062 216.807 91.0428 222.888 92.8312 228.843C102.291 260.364 123.439 287.079 151.948 303.521C151.979 303.521 151.979 303.521 152.009 303.552H152.04C153.664 304.51 155.306 305.395 156.96 306.25Z" fill="url(#paint2_linear)"/>
<path d="M258.938 139.349C258.297 136.327 257.534 133.305 256.649 130.375C256.374 129.398 256.038 128.36 255.702 127.384C255.58 126.956 255.489 126.651 255.428 126.498C255.184 125.705 254.909 124.911 254.634 124.148C254.298 123.232 253.993 122.286 253.596 121.371C253.352 120.73 253.108 120.058 252.833 119.387C252.345 118.166 251.826 116.914 251.307 115.663C250.697 114.289 250.086 112.916 249.445 111.573C249.079 110.84 248.743 110.138 248.346 109.405C248.011 108.703 247.644 107.971 247.278 107.269C246.912 106.567 246.515 105.804 246.088 105.071C245.538 103.972 244.897 102.935 244.287 101.897C243.463 100.462 242.578 99.0581 241.723 97.654C241.631 97.6235 241.631 97.593 241.601 97.5014C240.655 96.0668 239.708 94.6627 238.732 93.2892C237.755 91.9156 236.748 90.5116 235.71 89.138C234.672 87.7645 233.634 86.452 232.535 85.109C232.441 85.0378 232.368 84.9432 232.322 84.8343C231.284 83.6133 230.277 82.4229 229.208 81.263C228.049 79.9811 226.919 78.7601 225.729 77.5392C224.538 76.3183 223.378 75.0973 222.097 73.9068C220.967 72.808 219.777 71.7093 218.525 70.641L218.342 70.4578C217.701 69.9084 217.06 69.3284 216.419 68.8095L214.405 67.1612C213.123 66.0929 211.749 65.0246 210.376 64.0174C209.674 63.4985 208.941 62.9796 208.239 62.4302C207.537 61.8808 206.774 61.4229 206.072 60.904C205.767 60.6904 205.461 60.5072 205.156 60.2935C203.844 59.4083 202.47 58.5232 201.097 57.6686C199.509 56.6613 197.892 55.7151 196.243 54.7994C195.602 54.4331 194.992 54.0668 194.32 53.7616C193.68 53.3953 193.069 53.09 192.398 52.7543C191.786 52.4025 191.154 52.0866 190.505 51.8081C189.071 51.0755 187.605 50.3735 186.079 49.702C185.652 49.4883 185.194 49.2747 184.736 49.0916C183.637 48.6032 182.569 48.1453 181.47 47.7485C181.268 47.6408 181.052 47.5587 180.829 47.5043C180.066 47.1685 179.303 46.8633 178.51 46.5886C177.777 46.3139 177.044 46.0392 176.251 45.795L176.19 45.7645L176.159 45.734C175.427 45.4593 174.664 45.2151 173.87 44.9709C172.588 44.5131 171.276 44.1468 169.994 43.75L115.968 43.75C106.484 43.7484 97.0919 45.6152 88.3293 49.244C79.5667 52.8727 71.6048 58.1922 64.8985 64.8986C58.1921 71.6049 52.8727 79.5669 49.244 88.3295C45.6153 97.0921 43.7484 106.483 43.75 115.968L43.75 171.795C45.0014 168.59 46.375 165.446 47.8707 162.394C49.6105 158.792 51.5334 155.312 53.5784 151.924C54.0973 151.039 54.6773 150.154 55.2573 149.269C56.3561 147.559 57.4549 145.881 58.6453 144.202C59.8357 142.523 61.0261 140.905 62.3386 139.288C63.5595 137.7 64.8415 136.113 66.2151 134.587C67.5886 133.061 68.9011 131.504 70.3357 130.039C71.7092 128.543 73.1743 127.078 74.6699 125.705C77.6059 122.876 80.6823 120.197 83.8879 117.677C87.0107 115.19 90.2605 112.867 93.6248 110.718C93.7191 110.636 93.8213 110.565 93.93 110.504C95.5477 109.436 97.1654 108.429 98.8442 107.452C104.177 104.379 109.715 101.676 115.418 99.3633C116.67 98.8749 117.952 98.3866 119.234 97.8982L119.295 97.8677C120.088 97.593 120.912 97.2877 121.706 97.013C121.842 96.9865 121.975 96.9456 122.103 96.8909C123.141 96.5246 124.178 96.2194 125.186 95.9142C125.996 95.6181 126.822 95.3635 127.658 95.1511C129.673 94.5712 131.718 94.0217 133.763 93.5639C133.61 93.6555 133.488 93.8081 133.335 93.8996C133.671 93.7165 133.976 93.5944 134.282 93.4113H134.373C146.976 87.0737 160.893 83.7904 174.999 83.827C198.056 83.8007 220.261 92.5411 237.114 108.276C237.205 108.368 237.297 108.429 237.328 108.52C242.544 113.402 247.165 118.883 251.093 124.85L251.124 124.881C251.796 125.919 252.467 126.956 253.108 128.025C255.36 131.764 257.338 135.661 259.029 139.684C258.991 139.575 258.96 139.463 258.938 139.349Z" fill="url(#paint3_linear)"/>
<g style="mix-blend-mode:multiply" opacity="0.08">
<g style="mix-blend-mode:multiply" opacity="0.08">
<path d="M306.249 118.746V173.382C298.527 200.084 282.331 223.549 260.103 240.237C237.875 256.926 210.823 265.933 183.028 265.898H181.715C197.375 264.736 212.468 259.547 225.533 250.836C238.597 242.124 249.19 230.185 256.283 216.176C256.314 216.145 256.283 216.145 256.283 216.145C275.207 194.443 293.369 163.34 306.249 118.746Z" fill="black"/>
</g>
</g>
<g style="mix-blend-mode:multiply" opacity="0.08">
<g style="mix-blend-mode:multiply" opacity="0.08">
<path d="M192.52 306.25H156.961C137.472 296.194 120.886 281.31 108.787 263.018C96.689 244.727 89.4828 223.639 87.8565 201.769C92.5214 216.96 101.088 230.663 112.702 241.51C133 269.877 160.575 292.243 192.52 306.25Z" fill="black"/>
</g>
</g>
<g style="mix-blend-mode:multiply" opacity="0.08">
<g style="mix-blend-mode:multiply" opacity="0.08">
<path d="M133.763 93.5642C133.626 93.6832 133.484 93.7956 133.335 93.9C123.693 98.8838 115.012 105.539 107.696 113.557C88.5885 130.131 64.8109 156.717 43.75 197.862L43.75 171.795C45.63 166.923 47.8326 162.181 50.343 157.602C50.8619 156.625 51.4114 155.648 51.9303 154.672C53.0291 152.84 54.0974 151.039 55.2573 149.269C56.3561 147.56 57.4549 145.881 58.6453 144.202C59.8357 142.523 61.0871 140.906 62.3386 139.288C63.59 137.67 64.9026 136.114 66.2151 134.587C67.5276 133.061 68.9011 131.535 70.3357 130.039C71.7703 128.544 73.1743 127.109 74.6699 125.705C77.6001 122.897 80.683 120.211 83.8879 117.678C87.0318 115.175 90.2978 112.855 93.6553 110.657C93.7432 110.6 93.8351 110.549 93.93 110.505C95.6088 109.406 97.3486 108.368 99.0579 107.33C99.1586 107.298 99.252 107.246 99.3326 107.178L101.805 105.804C103.942 104.644 106.078 103.545 108.276 102.508C109.314 101.989 110.382 101.531 111.45 101.042C112.763 100.462 114.106 99.8825 115.418 99.3636C117.494 98.5395 119.6 97.7459 121.706 97.0133C122.835 96.6471 124.026 96.2502 125.186 95.9145C125.996 95.6184 126.822 95.3639 127.658 95.1514C129.666 94.5715 131.718 94.0221 133.763 93.5642Z" fill="black"/>
</g>
</g>
<g style="mix-blend-mode:multiply" opacity="0.08">
<g style="mix-blend-mode:multiply" opacity="0.08">
<path d="M259.029 139.684C257.338 135.661 255.359 131.764 253.108 128.025C252.584 126.896 251.917 125.839 251.124 124.881L251.093 124.85C247.165 118.883 242.544 113.402 237.327 108.52C237.297 108.429 237.205 108.368 237.114 108.276C217.121 87.2151 180.524 60.3852 115.998 43.75H169.993C171.275 44.1468 172.588 44.5131 173.87 44.9709C174.663 45.2151 175.426 45.4593 176.159 45.734C176.189 45.734 176.22 45.795 176.251 45.795C177.044 46.0392 177.777 46.3139 178.509 46.5886C179.303 46.8633 180.066 47.1685 180.829 47.5043C181.052 47.5587 181.267 47.6408 181.47 47.7485C182.569 48.1453 183.637 48.6032 184.736 49.0916C185.194 49.2747 185.652 49.4883 186.079 49.702C187.605 50.3735 189.07 51.0755 190.505 51.8081C191.153 52.0866 191.785 52.4025 192.397 52.7543C193.069 53.09 193.679 53.3953 194.32 53.7616C194.992 54.0668 195.602 54.4331 196.243 54.7994C197.891 55.7151 199.509 56.6613 201.096 57.6686C202.47 58.5232 203.843 59.4084 205.156 60.2935C205.461 60.5072 205.766 60.6904 206.072 60.9041C206.774 61.4229 207.506 61.9113 208.239 62.4302C208.971 62.9491 209.673 63.4985 210.375 64.0174C211.749 65.0246 213.122 66.0929 214.404 67.1613L216.419 68.8095C217.06 69.3284 217.701 69.9084 218.342 70.4578L218.525 70.641C219.776 71.7093 220.967 72.808 222.096 73.9069C223.378 75.0974 224.569 76.2878 225.728 77.5392C226.888 78.7907 228.048 79.9811 229.208 81.263C230.276 82.4229 231.284 83.6133 232.321 84.8343C232.367 84.9432 232.441 85.0379 232.535 85.109C233.634 86.452 234.672 87.795 235.71 89.138C236.747 90.4811 237.755 91.8851 238.731 93.2892C239.708 94.6933 240.654 96.0668 241.601 97.5014C241.631 97.593 241.631 97.6235 241.723 97.654C242.577 99.0581 243.462 100.462 244.287 101.897C244.897 102.935 245.538 103.972 246.087 105.071C246.515 105.804 246.881 106.536 247.278 107.269C247.675 108.001 248.01 108.703 248.346 109.405C248.743 110.138 249.079 110.84 249.445 111.573C250.086 112.916 250.696 114.289 251.307 115.663C251.826 116.914 252.345 118.166 252.833 119.387C253.108 120.058 253.352 120.73 253.596 121.371C253.993 122.286 254.298 123.232 254.634 124.148C254.909 124.911 255.183 125.705 255.427 126.498C255.489 126.651 255.58 126.956 255.702 127.384C255.885 128.055 256.16 129.062 256.465 130.192C257.35 133.488 258.541 137.914 258.938 139.349C258.96 139.463 258.991 139.575 259.029 139.684Z" fill="black"/>
</g>
</g>
<g style="mix-blend-mode:multiply" opacity="0.25">
<g style="mix-blend-mode:multiply" opacity="0.25">
<path d="M152.014 303.563C151.983 303.533 151.983 303.533 151.953 303.533C123.439 287.089 102.289 260.37 92.8297 228.843C91.0413 222.888 89.7047 216.807 88.8311 210.651C88.9532 210.986 89.4111 212.696 90.2352 215.412C91.1204 218.465 92.4939 222.799 94.3558 227.835C95.3631 230.369 96.3704 233.085 97.5913 235.893C98.1712 237.328 98.8427 238.763 99.5448 240.228C100.247 241.693 100.888 243.158 101.651 244.654C103.116 247.675 104.825 250.667 106.565 253.688C108.305 256.71 110.228 259.732 112.242 262.632C114.196 265.592 116.302 268.462 118.469 271.209C120.636 273.956 122.834 276.611 125.093 279.084C127.351 281.556 129.518 283.906 131.716 286.074C133.914 288.241 135.959 290.194 138.034 292.026C140.11 293.857 141.88 295.444 143.62 296.879C145.36 298.313 146.825 299.473 148.077 300.481C150.421 302.3 151.861 303.411 152.014 303.563Z" fill="black"/>
</g>
</g>
<g style="mix-blend-mode:multiply" opacity="0.25">
<g style="mix-blend-mode:multiply" opacity="0.25">
<path d="M304.691 178.358C298.26 197.48 287.422 214.823 273.053 228.984C258.684 243.147 241.187 253.732 221.973 259.885C218.707 260.923 215.411 261.839 212.053 262.602C212.481 262.388 214.312 261.656 217.212 260.557C218.83 259.885 221.058 259.244 223.164 258.237C225.423 257.169 228.139 256.161 230.795 254.788C232.138 254.116 233.542 253.414 235.007 252.712C236.441 251.919 237.906 251.095 239.432 250.27C241.004 249.455 242.532 248.559 244.011 247.584C245.537 246.608 247.155 245.722 248.712 244.654C250.268 243.586 251.855 242.518 253.443 241.419C255.03 240.32 256.525 239.068 258.113 237.909C259.7 236.749 261.226 235.467 262.752 234.185C264.278 232.903 265.835 231.651 267.239 230.217C268.704 228.843 270.231 227.561 271.635 226.157C273.039 224.753 274.412 223.288 275.786 221.884C278.35 218.893 281.066 216.115 283.325 213.093C285.736 210.224 287.781 207.202 289.857 204.425C290.803 202.99 291.719 201.555 292.604 200.212C293.517 198.924 294.363 197.59 295.137 196.214C296.663 193.589 298.129 191.208 299.258 189.01C300.387 186.813 301.516 184.92 302.219 183.272C303.5 180.616 304.416 178.877 304.691 178.358Z" fill="black"/>
</g>
</g>
<g style="mix-blend-mode:multiply" opacity="0.25">
<g style="mix-blend-mode:multiply" opacity="0.25">
<path d="M119.233 97.8982L113.006 101.439C110.9 102.568 108.886 103.85 106.841 105.071C104.796 106.292 102.812 107.605 100.828 108.856L100.065 109.344L99.4238 109.802L97.9279 110.84L96.4631 111.878L95.7302 112.397L95.3948 112.641C95.4253 112.61 95.4555 112.58 95.4555 112.549L95.1503 112.824L88.191 118.166L86.4515 119.478L85.9934 119.783L85.8411 119.905H85.8102V119.936L85.78 119.967L85.6884 120.028L84.9556 120.669L81.6899 123.599C80.5911 124.576 79.5228 125.552 78.3934 126.468L76.7449 127.903L75.3103 129.276L72.2886 132.267C71.3119 133.336 70.2741 134.373 69.2669 135.411L68.5038 136.205L68.3511 136.357L68.3207 136.388H68.2901L68.2596 136.449L68.1986 136.48L67.8628 136.907L66.3977 138.555L64.9631 140.173L64.2916 140.905L63.5896 141.73L60.7509 145.087L58.126 148.445L56.7524 150.154L55.4704 151.863C54.6157 152.84 53.7917 154.214 52.9676 155.373C51.3193 157.754 49.6099 160.135 47.8396 162.455C48.6332 160.807 49.4574 159.189 50.3425 157.602C50.8614 156.625 51.4109 155.648 51.9298 154.671C53.0286 152.84 54.0969 151.039 55.2568 149.269C56.3556 147.559 57.4544 145.881 58.6448 144.202C59.8352 142.523 61.0866 140.905 62.3381 139.288C63.5895 137.67 64.9021 136.113 66.2146 134.587C67.5271 133.061 68.9006 131.535 70.3352 130.039C71.7698 128.544 73.1738 127.109 74.6696 125.705C77.5998 122.897 80.6826 120.211 83.8876 117.677C87.0315 115.174 90.2974 112.855 93.655 110.657C93.7426 110.6 93.8344 110.549 93.9294 110.504C95.6084 109.405 97.348 108.368 99.0573 107.33C99.158 107.298 99.2517 107.246 99.3323 107.177L101.805 105.804C103.941 104.644 106.078 103.545 108.276 102.507C109.313 101.988 110.382 101.53 111.45 101.042C112.762 100.462 114.105 99.8822 115.418 99.3633C116.669 98.875 117.951 98.3866 119.233 97.8982Z" fill="black"/>
</g>
</g>
<g style="mix-blend-mode:multiply" opacity="0.25">
<g style="mix-blend-mode:multiply" opacity="0.25">
<path d="M252.834 119.387C251.796 117.586 250.819 115.846 249.751 114.075L248.958 112.763C248.683 112.275 248.5 111.939 248.194 111.481L246.577 108.887L244.959 106.353L243.25 103.789L240.136 99.2412L240.075 99.1801C239.957 99.0614 239.854 98.9283 239.77 98.7833C239.767 98.7601 239.756 98.7388 239.74 98.7223V98.6918L237.45 95.731C237.054 95.2121 236.718 94.7238 236.29 94.2354L235.1 92.7397L233.91 91.2136L233.391 90.5726L232.78 89.8095L230.522 87.1235L230.461 87.0624C230.408 86.9937 230.346 86.9321 230.277 86.8793C230.18 86.7721 230.088 86.6601 230.003 86.5435C228.934 85.4142 227.927 84.2238 226.92 83.1249L223.562 79.6148L220.015 76.1229L216.505 72.8569L216.414 72.7654V72.7349H216.383C215.498 71.9413 214.613 71.1476 213.667 70.354L212.293 69.2552L210.889 68.0953L208.081 65.7755L206.646 64.6462L205.242 63.5779C204.723 63.2117 204.327 62.9064 203.777 62.5401L202.373 61.5329L200.877 60.4645L200.145 59.9151C200.053 59.8541 199.84 59.732 199.84 59.7014L199.443 59.4573L196.391 57.4122L193.43 55.4892L193.338 55.4588C192.392 54.8483 191.446 54.2378 190.408 53.6579L187.356 51.857L184.303 50.0867L181.19 48.4079L181.099 48.3468L180.641 48.1027L180.58 48.0721C179.176 47.3396 177.71 46.5154 176.245 45.7829C177.039 46.0271 177.771 46.3018 178.504 46.5765C179.298 46.8512 180.061 47.1564 180.824 47.4921C181.047 47.5466 181.262 47.6287 181.465 47.7364C182.564 48.1332 183.632 48.591 184.731 49.0794C185.189 49.2626 185.646 49.4762 186.074 49.6898C187.6 50.3613 189.065 51.0634 190.5 51.796C191.148 52.0744 191.78 52.3904 192.392 52.7421C193.064 53.0779 193.674 53.3832 194.315 53.7495C194.987 54.0547 195.597 54.421 196.238 54.7873C197.886 55.703 199.504 56.6492 201.091 57.6564C202.465 58.5111 203.838 59.3962 205.151 60.2814C205.456 60.4951 205.761 60.6782 206.066 60.8919C206.768 61.4108 207.501 61.8992 208.234 62.4181C208.966 62.937 209.668 63.4863 210.37 64.0052C211.744 65.0125 213.117 66.0808 214.399 67.1491L216.414 68.7974C217.055 69.3163 217.696 69.8963 218.337 70.4457L218.52 70.6288C219.771 71.6971 220.962 72.7959 222.091 73.8947C223.373 75.0851 224.563 76.2755 225.723 77.527C226.883 78.7784 228.043 79.9688 229.203 81.2508C230.271 82.4107 231.279 83.6011 232.316 84.822C232.362 84.931 232.436 85.0259 232.53 85.0967C233.629 86.4397 234.667 87.7828 235.704 89.1258C236.742 90.4688 237.749 91.8729 238.726 93.2769C239.703 94.681 240.649 96.0546 241.595 97.4892C241.626 97.5807 241.626 97.6112 241.717 97.6418C242.572 99.0458 243.457 100.45 244.281 101.884C244.892 102.922 245.533 103.96 246.082 105.059C246.51 105.791 246.876 106.524 247.273 107.257C247.669 107.989 248.005 108.691 248.341 109.393C248.738 110.126 249.074 110.828 249.44 111.56C250.081 112.903 250.691 114.277 251.302 115.65C251.827 116.914 252.346 118.166 252.834 119.387Z" fill="black"/>
</g>
</g>
<g style="mix-blend-mode:screen" opacity="0.4">
<g style="mix-blend-mode:screen" opacity="0.4">
<path d="M151.947 303.521C151.581 303.368 149.933 302.697 147.43 301.476C145.965 300.774 144.225 299.919 142.271 298.79C140.318 297.66 138.12 296.317 135.892 294.761C133.399 293.119 130.994 291.346 128.689 289.45C126.084 287.35 123.587 285.119 121.21 282.765C118.632 280.28 116.197 277.65 113.915 274.89C111.565 272.082 109.306 269.121 107.2 266.069C105.125 262.956 103.171 259.781 101.431 256.576C100.523 255.003 99.6973 253.383 98.959 251.723C98.1654 250.105 97.4328 248.488 96.7613 246.9C95.4351 243.824 94.2835 240.675 93.3122 237.469C92.305 234.447 91.6334 231.517 90.9925 228.831C90.0026 224.482 89.3494 220.063 89.039 215.614C88.8253 212.775 88.8253 211.005 88.8253 210.639C89.6986 216.795 91.0352 222.876 92.8238 228.831C102.283 260.358 123.433 287.077 151.947 303.521Z" fill="white"/>
</g>
</g>
<g style="mix-blend-mode:screen" opacity="0.4">
<g style="mix-blend-mode:screen" opacity="0.4">
<path d="M304.691 178.358C304.599 178.846 304.141 180.769 303.378 183.73C302.951 185.5 302.219 187.576 301.395 189.957C300.485 192.635 299.435 195.263 298.25 197.832C297.06 200.731 295.382 203.661 293.733 206.836C289.813 213.587 285.265 219.954 280.15 225.852C278.716 227.347 277.312 228.874 275.877 230.369C274.442 231.865 272.855 233.3 271.36 234.734C269.864 236.169 268.185 237.481 266.568 238.794C264.95 240.106 263.363 241.449 261.653 242.609C258.404 245.007 255.02 247.219 251.52 249.233C248.267 251.112 244.915 252.814 241.478 254.33C239.799 255.032 238.242 255.795 236.686 256.406C235.068 256.955 233.542 257.504 232.046 258.023C229.393 258.966 226.694 259.771 223.958 260.435C221.836 260.983 219.686 261.411 217.517 261.717C214.465 262.236 212.542 262.541 212.053 262.602C215.411 261.839 218.707 260.923 221.973 259.885C241.187 253.732 258.684 243.147 273.053 228.984C287.422 214.823 298.26 197.48 304.691 178.358Z" fill="white"/>
</g>
</g>
<g style="mix-blend-mode:screen" opacity="0.4">
<g style="mix-blend-mode:screen" opacity="0.4">
<path d="M85.6894 120.027C85.7199 119.966 85.781 119.966 85.781 119.936V119.966L85.6894 120.027Z" fill="white"/>
</g>
</g>
<g style="mix-blend-mode:screen" opacity="0.4">
<g style="mix-blend-mode:screen" opacity="0.4">
<path d="M119.235 97.8982C117.953 98.3866 116.671 98.875 115.419 99.3633C109.716 101.676 104.178 104.379 98.8452 107.452C97.1664 108.429 95.5487 109.436 93.9309 110.504C93.8223 110.565 93.72 110.636 93.6257 110.718C90.2614 112.867 87.0117 115.19 83.8888 117.677C80.6833 120.197 77.6069 122.876 74.6709 125.705C73.1753 127.078 71.7102 128.544 70.3367 130.039C68.9021 131.504 67.559 133.03 66.216 134.587C64.873 136.144 63.5604 137.7 62.3395 139.288C61.027 140.905 59.8061 142.554 58.6463 144.202C57.4864 145.85 56.3571 147.559 55.2582 149.269C54.6783 150.154 54.0983 151.039 53.5794 151.924C51.5344 155.312 49.6114 158.792 47.8716 162.394C47.8411 162.424 47.8106 162.485 47.78 162.516C48.7873 159.738 49.8556 156.991 50.9849 154.305C51.6259 152.932 52.0227 151.65 52.8163 150.215L53.8847 148.2L54.953 146.308C55.6855 144.965 56.296 143.836 57.2117 142.401L59.6536 138.769L60.264 137.853L60.966 136.876L63.6521 133.397L63.9878 132.969L64.4152 132.451L65.1172 131.596C66.0634 130.497 66.9791 129.368 67.9559 128.269L71.0997 125.064L71.8628 124.27L72.4428 123.69L72.809 123.355L74.4267 121.889C75.495 120.913 76.6243 119.967 77.7537 119.02L81.0807 116.182L81.9048 115.48L82.2101 115.235L82.3322 115.174L82.5458 114.991L83.0037 114.686L84.8045 113.435L92.0996 108.612L91.7943 108.887C92.059 108.656 92.3453 108.452 92.649 108.276L93.0152 108.032L93.8088 107.605L95.396 106.75L96.9832 105.895L97.8379 105.437L98.662 105.01C100.86 103.911 103.088 102.996 105.347 102.08C107.605 101.164 109.925 100.401 112.245 99.638C114.534 98.936 116.915 98.3866 119.235 97.8982Z" fill="white"/>
</g>
</g>
<g style="mix-blend-mode:screen" opacity="0.4">
<g style="mix-blend-mode:screen" opacity="0.4">
<path d="M229.544 85.536L230.155 86.6959L230.002 86.5432C229.791 86.2374 229.636 85.8965 229.544 85.536Z" fill="white"/>
</g>
</g>
<g style="mix-blend-mode:screen" opacity="0.4">
<g style="mix-blend-mode:screen" opacity="0.4">
<path d="M239.494 98.2037L239.616 98.509C239.566 98.4116 239.525 98.3093 239.494 98.2037Z" fill="white"/>
</g>
</g>
<g style="mix-blend-mode:screen" opacity="0.4">
<g style="mix-blend-mode:screen" opacity="0.4">
<path d="M239.801 98.7834L241.022 99.7601C240.86 99.7119 240.706 99.6401 240.565 99.5464C240.406 99.4689 240.262 99.3657 240.137 99.2412L240.076 99.1802L239.801 98.7834Z" fill="white"/>
</g>
</g>
<g style="mix-blend-mode:screen" opacity="0.4">
<g style="mix-blend-mode:screen" opacity="0.4">
<path d="M252.834 119.386C252.345 118.165 251.826 116.914 251.307 115.662C250.697 114.289 250.117 112.915 249.446 111.572C249.079 110.84 248.744 110.138 248.347 109.405C248.042 108.703 247.645 107.971 247.278 107.269C246.912 106.566 246.516 105.803 246.088 105.071C245.539 103.972 244.898 102.934 244.287 101.896C243.463 100.462 242.578 99.0578 241.723 97.6537C241.632 97.6232 241.632 97.5926 241.601 97.5011C240.685 96.0665 239.739 94.6319 238.732 93.2889C237.786 91.8848 236.778 90.4807 235.71 89.1377C234.703 87.7947 233.665 86.4211 232.536 85.1086C232.442 85.0378 232.368 84.9429 232.322 84.8339C231.315 83.613 230.308 82.4226 229.209 81.2627C228.079 79.9807 226.95 78.7598 225.729 77.5389C224.569 76.2874 223.379 75.097 222.097 73.9067C220.967 72.8078 219.777 71.7091 218.526 70.6408L218.342 70.4576C217.702 69.9082 217.061 69.3282 216.42 68.8093C215.748 68.2294 215.077 67.6799 214.405 67.161C213.123 66.0927 211.749 65.0244 210.376 64.0172C209.674 63.4677 208.972 62.9184 208.239 62.43C207.507 61.9416 206.774 61.4227 206.072 60.9038C205.767 60.6902 205.462 60.507 205.157 60.2933C203.844 59.4082 202.47 58.523 201.097 57.6684C199.51 56.6611 197.892 55.7149 196.244 54.7992C195.603 54.4329 194.992 54.0666 194.321 53.7614C193.68 53.3951 193.069 53.0898 192.398 52.7541C191.786 52.4023 191.154 52.0864 190.505 51.8079C189.071 51.0753 187.575 50.3733 186.08 49.7018C185.652 49.4881 185.194 49.2745 184.737 49.0914C183.668 48.603 182.569 48.2062 181.471 47.7483C181.268 47.6406 181.053 47.5585 180.83 47.5041C180.067 47.1683 179.303 46.8631 178.51 46.5884C177.777 46.3137 177.045 46.039 176.251 45.7948C177.839 46.1 179.456 46.4358 181.013 46.8937L181.837 47.1378L181.745 47.0768L183.455 47.5652L185.194 48.1146L188.582 49.3355L190.231 49.946L191.91 50.6175C192.978 51.0448 194.077 51.5332 195.206 52.0216L196.885 52.7846L198.625 53.6698L201.891 55.3791L202.287 55.5927L202.776 55.8675L203.569 56.3253L205.157 57.241L206.805 58.2483C207.293 58.523 207.873 58.9198 208.392 59.2556L209.979 60.2933L211.475 61.3311L214.466 63.5288L215.931 64.6277L217.427 65.818C218.373 66.5506 219.319 67.3748 220.296 68.1684L220.357 68.2294L220.449 68.3515L220.632 68.5346L220.54 68.4125L224.325 71.8311L227.805 75.3717L231.223 79.0956C232.353 80.4081 233.421 81.6595 234.489 82.972L234.55 83.0941L235.1 84.1319C235.008 83.8151 234.864 83.5156 234.672 83.2467L234.764 83.3383L237.053 86.4211L237.603 87.2147L238.244 88.0694L239.312 89.6566L240.38 91.2743C240.746 91.7932 241.113 92.4037 241.418 92.9226L243.463 96.2801L243.524 96.4022C243.328 96.123 243.079 95.8846 242.792 95.7002C242.578 95.6086 242.486 95.5781 242.425 95.5476L243.524 96.4022L243.555 96.4633L243.646 96.5243L245.081 99.2104L245.752 100.584C246.057 101.164 246.241 101.53 246.455 102.019L247.767 104.766L248.378 106.17L248.988 107.665L250.117 110.504C250.3 110.962 250.514 111.542 250.667 112L251.124 113.434C251.43 114.411 251.826 115.418 252.04 116.395L252.834 119.386Z" fill="white"/>
</g>
</g>
<path d="M197.942 117.196L215.985 135.239C216.35 135.892 216.695 136.563 217.031 137.225C217.032 137.24 217.039 137.253 217.05 137.263C217.06 137.273 217.06 137.273 217.06 137.292C221.048 145.323 223.092 154.179 223.027 163.145C222.962 172.112 220.79 180.937 216.686 188.909C215.985 190.262 215.237 191.586 214.422 192.881C214.414 192.898 214.405 192.914 214.393 192.929C212.096 196.592 209.393 199.983 206.335 203.039L205.923 203.452C210.479 198.165 213.592 191.791 214.96 184.947C216.328 178.104 215.904 171.023 213.731 164.391L213.721 164.381C211.899 158.799 208.882 153.681 204.882 149.382C200.881 145.083 195.993 141.707 190.555 139.489C189.356 138.712 188.129 137.983 186.882 137.311C186.364 137.024 185.817 136.745 185.28 136.477C184.953 136.304 184.618 136.141 184.292 135.988C183.898 135.805 183.505 135.604 183.092 135.441C182.814 135.316 182.527 135.182 182.229 135.057C181.692 134.827 181.136 134.597 180.579 134.366C179.956 134.127 179.342 133.877 178.709 133.666C178.363 133.551 178.037 133.436 177.682 133.33C177.366 133.206 177.011 133.1 176.675 132.995C176.339 132.889 175.975 132.774 175.61 132.678C175.092 132.506 174.565 132.381 174.047 132.247C173.337 132.055 172.617 131.892 171.908 131.719C171.869 131.738 171.86 131.729 171.821 131.709C171.083 131.546 170.334 131.393 169.596 131.287C168.857 131.143 168.099 131.019 167.342 130.932C166.603 130.827 165.845 130.721 165.078 130.664C165.026 130.671 164.973 130.664 164.924 130.645C164.224 130.577 163.533 130.52 162.824 130.501C162.066 130.453 161.327 130.424 160.56 130.424C159.802 130.395 159.054 130.395 158.277 130.424C157.576 130.433 156.857 130.462 156.128 130.52L156.013 130.52C155.639 130.549 155.255 130.568 154.891 130.606C154.497 130.635 154.114 130.673 153.739 130.721C153.001 130.788 152.233 130.884 151.485 130.999C151.092 131.047 150.699 131.095 150.315 131.172C149.931 131.249 149.538 131.316 149.154 131.374C148.991 131.402 148.838 131.441 148.675 131.469C147.984 131.604 147.274 131.757 146.574 131.92C145.758 132.103 144.953 132.314 144.147 132.544C143.83 132.63 143.523 132.707 143.216 132.822C142.9 132.908 142.612 133.004 142.296 133.11C141.993 133.192 141.695 133.291 141.403 133.407C140.722 133.628 140.032 133.877 139.351 134.136C139.149 134.203 138.938 134.28 138.737 134.366C138.248 134.549 137.778 134.769 137.288 134.971C137.191 135.001 137.097 135.042 137.01 135.095C136.665 135.23 136.329 135.374 135.993 135.537C135.677 135.681 135.36 135.824 135.034 135.997L135.005 136.007L134.986 136.007C134.67 136.151 134.353 136.314 134.027 136.486C133.48 136.745 132.953 137.043 132.425 137.321L152.54 117.205C155.518 114.219 159.055 111.849 162.951 110.231C166.846 108.614 171.021 107.781 175.239 107.78C179.456 107.779 183.633 108.61 187.528 110.226C191.424 111.842 194.963 114.21 197.942 117.196Z" fill="url(#paint4_linear)"/>
<path d="M215.985 135.24L235.036 154.29C238.024 157.268 240.395 160.807 242.013 164.703C243.63 168.6 244.463 172.777 244.463 176.996C244.463 181.215 243.631 185.392 242.013 189.288C240.395 193.185 238.024 196.723 235.036 199.701L210.824 223.913C210.038 224.162 209.242 224.402 208.436 224.613L208.426 224.623C208.407 224.623 208.407 224.623 208.398 224.632C194.269 228.425 179.225 226.675 166.344 219.74C163.911 218.431 161.579 216.939 159.37 215.279L159.351 215.26C158.305 214.483 157.269 213.658 156.272 212.795C163.931 216.852 172.688 218.346 181.259 217.058C189.829 215.77 197.761 211.768 203.889 205.639C204.608 204.92 205.29 204.2 205.923 203.452L206.335 203.039C209.393 199.984 212.096 196.592 214.393 192.929C214.404 192.914 214.414 192.898 214.422 192.881C215.237 191.586 215.985 190.262 216.685 188.91C220.79 180.937 222.962 172.112 223.027 163.146C223.092 154.179 221.048 145.323 217.059 137.292C217.059 137.273 217.059 137.273 217.05 137.264C217.039 137.254 217.032 137.24 217.031 137.225C216.695 136.563 216.348 135.894 215.985 135.24Z" fill="url(#paint5_linear)"/>
<path d="M210.824 223.913L197.951 236.786C191.929 242.808 183.762 246.19 175.246 246.19C166.73 246.19 158.562 242.808 152.54 236.786L132.991 217.236C132.386 215.865 131.83 214.464 131.341 213.054L131.341 213.016C131.072 212.248 130.823 211.481 130.602 210.704C130.458 210.234 130.324 209.754 130.18 209.284C129.95 208.363 129.72 207.462 129.528 206.541C129.336 205.658 129.154 204.785 129 203.884C128.847 202.982 128.732 202.08 128.617 201.179C128.501 200.277 128.425 199.375 128.358 198.483C128.29 197.591 128.242 196.68 128.223 195.759C128.204 194.838 128.194 193.946 128.223 193.035C128.262 191.231 128.386 189.418 128.597 187.615C128.799 185.84 129.096 184.085 129.461 182.339C129.47 182.293 129.483 182.248 129.499 182.205C129.681 181.332 129.902 180.459 130.113 179.596C130.134 179.554 130.147 179.508 130.151 179.461L130.497 178.253C130.804 177.217 131.13 176.2 131.494 175.183C131.657 174.694 131.849 174.214 132.031 173.725C132.262 173.13 132.501 172.526 132.751 171.95C132.991 171.404 133.24 170.847 133.489 170.291L133.499 170.262C133.662 169.926 133.825 169.571 133.988 169.236C134.228 168.766 134.477 168.267 134.736 167.797C134.898 167.449 135.078 167.11 135.274 166.78C135.724 165.965 136.195 165.149 136.693 164.363C136.688 164.443 136.678 164.523 136.665 164.602C133.766 173.66 134.142 183.447 137.726 192.256C141.309 201.064 147.874 208.334 156.272 212.795C157.269 213.659 158.305 214.483 159.351 215.26L159.37 215.28C161.579 216.94 163.91 218.431 166.344 219.74C179.223 226.673 194.265 228.423 208.392 224.631C208.401 224.621 208.401 224.621 208.42 224.621L208.43 224.611C209.242 224.402 210.036 224.164 210.824 223.913Z" fill="url(#paint6_linear)"/>
<path d="M190.421 139.413C189.27 138.664 188.08 137.954 186.881 137.312C186.488 137.091 186.056 136.87 185.644 136.669C185.471 136.573 185.346 136.506 185.279 136.477C184.953 136.305 184.617 136.141 184.291 135.988C183.898 135.806 183.505 135.604 183.092 135.441C182.814 135.316 182.526 135.182 182.229 135.058C181.692 134.827 181.135 134.597 180.579 134.367C179.955 134.127 179.332 133.887 178.708 133.667C178.363 133.551 178.037 133.436 177.682 133.331C177.356 133.216 177.01 133.101 176.675 132.995C176.339 132.89 175.974 132.774 175.61 132.679C175.092 132.506 174.564 132.381 174.046 132.247C173.337 132.055 172.617 131.892 171.907 131.719C171.869 131.738 171.859 131.729 171.821 131.71C171.073 131.556 170.334 131.412 169.595 131.288C168.857 131.163 168.099 131.038 167.341 130.933C166.583 130.827 165.845 130.741 165.077 130.664C165.025 130.671 164.973 130.665 164.924 130.645C164.214 130.587 163.523 130.53 162.823 130.501C162.056 130.463 161.317 130.434 160.559 130.424C159.802 130.415 159.053 130.395 158.276 130.424C157.576 130.434 156.857 130.463 156.128 130.52L156.012 130.52C155.638 130.549 155.255 130.568 154.89 130.607L153.739 130.722C153 130.789 152.233 130.885 151.485 131C151.101 131.057 150.708 131.125 150.315 131.172C149.921 131.22 149.538 131.316 149.154 131.374C148.991 131.403 148.837 131.441 148.674 131.47C147.984 131.604 147.274 131.758 146.573 131.921C145.758 132.103 144.952 132.314 144.147 132.544C143.83 132.631 143.523 132.707 143.216 132.822C142.9 132.909 142.612 133.005 142.295 133.11C141.992 133.192 141.694 133.291 141.403 133.407C140.722 133.628 140.041 133.868 139.35 134.137C139.149 134.204 138.938 134.28 138.736 134.367C138.238 134.559 137.758 134.75 137.288 134.971C137.19 135.001 137.097 135.043 137.01 135.096C136.664 135.23 136.329 135.374 135.993 135.537C135.676 135.681 135.36 135.825 135.034 135.997L135.005 136.007L134.986 136.007C134.669 136.151 134.353 136.314 134.026 136.487C133.48 136.746 132.952 137.043 132.425 137.321L115.446 154.3C112.465 157.28 110.1 160.818 108.487 164.712C106.873 168.607 106.043 172.781 106.043 176.996C106.043 181.211 106.873 185.385 108.487 189.279C110.1 193.173 112.465 196.712 115.446 199.692L132.991 217.236C132.377 215.836 131.82 214.416 131.331 212.987C130.746 211.308 130.257 209.61 129.835 207.903C129.72 207.462 129.624 207.001 129.528 206.541C129.336 205.658 129.154 204.785 129 203.884C128.847 202.982 128.712 202.099 128.616 201.179C128.501 200.296 128.405 199.394 128.357 198.483C128.309 197.572 128.233 196.67 128.223 195.759C128.185 194.857 128.185 193.936 128.223 193.035C128.257 191.223 128.382 189.414 128.597 187.615C128.797 185.852 129.088 184.1 129.47 182.368C129.474 182.312 129.484 182.258 129.499 182.205C129.672 181.36 129.863 180.535 130.084 179.701C130.794 177.059 131.685 174.47 132.751 171.95C132.991 171.403 133.24 170.847 133.489 170.291L133.499 170.262C133.662 169.926 133.825 169.571 133.988 169.236C134.023 169.184 134.052 169.13 134.074 169.072C134.286 168.631 134.516 168.209 134.736 167.797C134.898 167.449 135.077 167.109 135.274 166.78C135.724 165.964 136.194 165.149 136.693 164.363C136.674 164.439 136.684 164.526 136.664 164.602C136.712 164.439 136.77 164.305 136.808 164.151L136.837 164.123C138.806 158.17 142.148 152.765 146.593 148.343C153.83 141.089 163.556 136.857 173.797 136.506C173.855 136.506 173.902 136.496 173.941 136.516C177.114 136.41 180.289 136.681 183.399 137.321L183.418 137.321C183.955 137.436 184.493 137.552 185.03 137.686C186.913 138.153 188.759 138.756 190.555 139.489C190.509 139.467 190.464 139.441 190.421 139.413Z" fill="url(#paint7_linear)"/>
<g style="mix-blend-mode:multiply" opacity="0.08">
<g style="mix-blend-mode:multiply" opacity="0.08">
<path d="M198.815 118.069L215.985 135.24C221.95 146.058 224.234 158.522 222.493 170.753C220.753 182.983 215.081 194.315 206.335 203.04L205.923 203.452C210.479 198.165 213.592 191.791 214.96 184.948C216.328 178.104 215.904 171.023 213.731 164.391C213.731 164.372 213.721 164.382 213.721 164.382C212.848 151.614 208.781 136.132 198.815 118.069Z" fill="black"/>
</g>
</g>
<g style="mix-blend-mode:multiply" opacity="0.08">
<g style="mix-blend-mode:multiply" opacity="0.08">
<path d="M222 212.738L210.824 223.913C201.539 226.878 191.649 227.412 182.099 225.466C172.548 223.52 163.656 219.157 156.272 212.795C162.512 216.103 169.511 217.717 176.57 217.476C191.863 220.012 207.558 218.375 222 212.738Z" fill="black"/>
</g>
</g>
<g style="mix-blend-mode:multiply" opacity="0.08">
<g style="mix-blend-mode:multiply" opacity="0.08">
<path d="M136.693 164.363C136.688 164.443 136.678 164.523 136.665 164.602C135.201 169.199 134.564 174.019 134.784 178.838C133.988 190.051 134.871 205.879 141.183 225.429L132.991 217.236C132.05 215.114 131.252 212.932 130.602 210.704C130.458 210.234 130.324 209.754 130.18 209.284C129.95 208.363 129.72 207.462 129.528 206.541C129.336 205.658 129.154 204.785 129 203.884C128.847 202.982 128.732 202.08 128.617 201.179C128.501 200.277 128.425 199.375 128.358 198.483C128.29 197.591 128.242 196.68 128.223 195.759C128.204 194.838 128.194 193.946 128.223 193.035C128.262 191.231 128.386 189.418 128.597 187.615C128.799 185.84 129.096 184.085 129.461 182.339C129.47 182.293 129.483 182.248 129.499 182.205C129.681 181.332 129.902 180.459 130.113 179.596C130.134 179.554 130.147 179.508 130.151 179.461L130.497 178.253C130.804 177.217 131.13 176.2 131.494 175.183C131.657 174.694 131.849 174.214 132.031 173.725C132.262 173.13 132.501 172.526 132.751 171.95C133.144 171.039 133.557 170.128 133.988 169.236C134.228 168.766 134.477 168.267 134.736 167.797C134.898 167.449 135.078 167.11 135.274 166.78C135.723 165.966 136.195 165.149 136.693 164.363Z" fill="black"/>
</g>
</g>
<g style="mix-blend-mode:multiply" opacity="0.08">
<g style="mix-blend-mode:multiply" opacity="0.08">
<path d="M190.555 139.489C188.759 138.756 186.912 138.153 185.03 137.686C184.51 137.496 183.969 137.374 183.418 137.321L183.399 137.321C180.289 136.681 177.114 136.41 173.941 136.516C173.902 136.496 173.854 136.506 173.797 136.506C160.895 136.17 140.962 139.24 115.455 154.29L132.424 137.321C132.952 137.043 133.48 136.746 134.026 136.487C134.353 136.314 134.669 136.151 134.986 136.007C134.995 135.998 135.024 136.007 135.034 135.998C135.36 135.825 135.676 135.681 135.993 135.537C136.329 135.374 136.664 135.23 137.01 135.096C137.097 135.043 137.19 135.001 137.288 134.971C137.758 134.751 138.237 134.559 138.736 134.367C138.938 134.281 139.149 134.204 139.35 134.137C140.041 133.868 140.722 133.628 141.403 133.408C141.694 133.291 141.992 133.192 142.295 133.11C142.612 133.005 142.899 132.909 143.216 132.822C143.523 132.707 143.83 132.631 144.146 132.544C144.952 132.314 145.758 132.103 146.573 131.921C147.274 131.758 147.983 131.604 148.674 131.47C148.837 131.441 148.991 131.403 149.154 131.374C149.537 131.316 149.921 131.24 150.314 131.173C150.708 131.105 151.101 131.057 151.485 131C152.233 130.885 153 130.789 153.739 130.722L154.89 130.607C155.255 130.568 155.638 130.549 156.012 130.52L156.128 130.52C156.857 130.463 157.576 130.434 158.276 130.424C159.053 130.396 159.801 130.396 160.559 130.424C161.317 130.453 162.056 130.463 162.823 130.501C163.523 130.53 164.214 130.587 164.924 130.645C164.972 130.665 165.025 130.671 165.077 130.664C165.845 130.741 166.593 130.837 167.341 130.933C168.089 131.029 168.847 131.153 169.595 131.288C170.344 131.422 171.073 131.556 171.821 131.71C171.859 131.729 171.869 131.739 171.907 131.719C172.617 131.892 173.336 132.055 174.046 132.247C174.564 132.381 175.092 132.506 175.61 132.679C175.974 132.775 176.32 132.89 176.675 132.995C177.03 133.101 177.356 133.216 177.682 133.331C178.037 133.436 178.363 133.552 178.708 133.667C179.332 133.887 179.955 134.127 180.579 134.367C181.135 134.597 181.692 134.827 182.229 135.058C182.526 135.182 182.814 135.317 183.092 135.441C183.505 135.604 183.898 135.806 184.291 135.988C184.617 136.142 184.953 136.305 185.279 136.477C185.346 136.506 185.471 136.573 185.644 136.669C185.912 136.823 186.315 137.053 186.766 137.312C188.08 138.07 189.845 139.086 190.421 139.413C190.464 139.441 190.509 139.467 190.555 139.489Z" fill="black"/>
</g>
</g>
<g style="mix-blend-mode:multiply" opacity="0.25">
<g style="mix-blend-mode:multiply" opacity="0.25">
<path d="M208.426 224.623C208.406 224.623 208.406 224.623 208.397 224.633C194.268 228.426 179.224 226.676 166.343 219.741C163.91 218.431 161.579 216.94 159.369 215.28C159.513 215.347 160.194 215.74 161.307 216.335C162.545 217.016 164.338 217.947 166.506 218.944C167.619 219.424 168.789 219.961 170.056 220.46C170.689 220.729 171.351 220.968 172.032 221.208C172.713 221.448 173.375 221.707 174.084 221.937C175.494 222.426 176.972 222.829 178.468 223.232C179.965 223.635 181.519 223.98 183.063 224.259C184.607 224.575 186.171 224.815 187.715 224.997C189.26 225.18 190.785 225.323 192.272 225.391C193.759 225.458 195.178 225.515 196.55 225.506C197.922 225.496 199.178 225.467 200.406 225.391C201.634 225.314 202.689 225.256 203.687 225.16C204.684 225.064 205.509 224.969 206.219 224.892C207.528 224.727 208.33 224.623 208.426 224.623Z" fill="black"/>
</g>
</g>
<g style="mix-blend-mode:multiply" opacity="0.25">
<g style="mix-blend-mode:multiply" opacity="0.25">
<path d="M217.059 137.293C221.047 145.324 223.092 154.18 223.027 163.146C222.962 172.113 220.789 180.938 216.685 188.91C215.985 190.263 215.236 191.587 214.421 192.882C214.488 192.68 214.834 191.874 215.4 190.618C215.697 189.898 216.196 188.997 216.541 188.018C216.915 186.973 217.452 185.802 217.855 184.536C218.066 183.903 218.287 183.241 218.527 182.56C218.728 181.86 218.93 181.14 219.15 180.402C219.388 179.652 219.586 178.89 219.745 178.119C219.918 177.332 220.148 176.546 220.301 175.721C220.455 174.896 220.618 174.061 220.771 173.217C220.925 172.373 221.001 171.51 221.136 170.646C221.27 169.783 221.347 168.9 221.424 168.018C221.5 167.135 221.596 166.253 221.587 165.361C221.615 164.469 221.692 163.586 221.692 162.704C221.692 161.821 221.663 160.929 221.654 160.056C221.52 158.31 221.5 156.584 221.26 154.924C221.117 153.265 220.81 151.672 220.589 150.147C220.435 149.399 220.273 148.66 220.129 147.96C220.011 147.268 219.857 146.583 219.668 145.907C219.323 144.603 219.035 143.394 218.699 142.348C218.364 141.303 218.124 140.353 217.826 139.614C217.395 138.377 217.136 137.543 217.059 137.293Z" fill="black"/>
</g>
</g>
<g style="mix-blend-mode:multiply" opacity="0.25">
<g style="mix-blend-mode:multiply" opacity="0.25">
<path d="M133.489 170.291L132.645 173.36C132.338 174.377 132.108 175.413 131.849 176.44C131.59 177.466 131.379 178.502 131.149 179.519L131.062 179.912L131.005 180.257L130.861 181.054L130.727 181.84L130.659 182.234L130.631 182.416C130.631 182.397 130.631 182.377 130.621 182.368L130.611 182.55L130.103 186.416L129.969 187.375L129.921 187.615L129.911 187.701L129.902 187.711L129.911 187.72L129.911 187.74L129.902 187.788L129.873 188.219L129.767 190.166C129.729 190.819 129.7 191.461 129.633 192.104L129.566 193.073L129.547 193.956L129.537 195.845C129.566 196.488 129.566 197.14 129.576 197.783L129.585 198.272L129.585 198.368L129.585 198.387L129.576 198.397L129.585 198.426L129.576 198.454L129.604 198.694L129.662 199.673L129.719 200.632L129.739 201.073L129.777 201.553L129.94 203.5L130.17 205.38L130.276 206.349L130.41 207.289C130.448 207.865 130.621 208.555 130.727 209.179C130.957 210.445 131.168 211.73 131.341 213.016C131.072 212.248 130.823 211.481 130.602 210.704C130.458 210.234 130.324 209.754 130.18 209.284C129.95 208.363 129.719 207.462 129.528 206.541C129.336 205.658 129.153 204.785 129 203.884C128.847 202.982 128.731 202.08 128.616 201.179C128.501 200.277 128.424 199.375 128.357 198.483C128.29 197.591 128.242 196.68 128.223 195.759C128.204 194.838 128.194 193.946 128.223 193.035C128.261 191.231 128.386 189.418 128.597 187.615C128.799 185.84 129.096 184.085 129.46 182.339C129.47 182.293 129.483 182.249 129.499 182.205C129.681 181.332 129.902 180.459 130.113 179.596C130.134 179.554 130.147 179.508 130.151 179.461L130.496 178.253C130.803 177.217 131.13 176.2 131.494 175.183C131.657 174.694 131.849 174.214 132.031 173.725C132.261 173.13 132.501 172.526 132.751 171.95C132.99 171.404 133.24 170.847 133.489 170.291Z" fill="black"/>
</g>
</g>
<g style="mix-blend-mode:multiply" opacity="0.25">
<g style="mix-blend-mode:multiply" opacity="0.25">
<path d="M182.229 135.057C181.337 134.817 180.483 134.578 179.591 134.357L178.929 134.194C178.689 134.127 178.526 134.079 178.286 134.031L176.963 133.724L175.658 133.436L174.315 133.168L171.907 132.717L171.869 132.717C171.795 132.717 171.721 132.707 171.648 132.688C171.64 132.682 171.63 132.678 171.62 132.678L171.61 132.669L169.96 132.458C169.672 132.419 169.413 132.371 169.126 132.352L168.281 132.256L167.428 132.151L167.063 132.112L166.632 132.064L165.078 131.93L165.039 131.93C165.001 131.925 164.962 131.925 164.924 131.93C164.86 131.927 164.796 131.921 164.732 131.911C164.042 131.892 163.351 131.834 162.689 131.805L160.531 131.757L158.319 131.775L156.189 131.851L156.132 131.851L156.122 131.842L156.112 131.851C155.585 131.88 155.057 131.909 154.51 131.957L153.734 132.043L152.928 132.12L151.316 132.274L150.51 132.369L149.733 132.475C149.455 132.523 149.235 132.552 148.947 132.609L148.189 132.734L147.383 132.868L146.98 132.926C146.932 132.935 146.827 132.964 146.817 132.955L146.616 133.003L145.014 133.319L143.479 133.645L143.441 133.664C142.952 133.77 142.462 133.875 141.954 134.019L140.429 134.413L138.913 134.816L137.407 135.266L137.359 135.276L137.139 135.343L137.11 135.353C136.438 135.564 135.719 135.765 135.028 135.995C135.354 135.823 135.671 135.679 135.987 135.535C136.323 135.372 136.659 135.228 137.004 135.094C137.091 135.041 137.185 134.999 137.282 134.969C137.752 134.748 138.232 134.557 138.731 134.365C138.932 134.278 139.143 134.202 139.345 134.134C140.035 133.866 140.716 133.626 141.398 133.405C141.689 133.289 141.987 133.19 142.29 133.108C142.606 133.003 142.894 132.907 143.211 132.82C143.518 132.705 143.824 132.628 144.141 132.542C144.947 132.312 145.753 132.101 146.568 131.919C147.268 131.756 147.978 131.602 148.669 131.468C148.832 131.439 148.985 131.401 149.148 131.372C149.532 131.314 149.916 131.238 150.309 131.17C150.702 131.103 151.096 131.055 151.479 130.998C152.227 130.883 152.995 130.787 153.734 130.72L154.885 130.604C155.249 130.566 155.633 130.547 156.007 130.518L156.122 130.518C156.851 130.461 157.571 130.432 158.271 130.422C159.048 130.393 159.796 130.393 160.554 130.422C161.312 130.451 162.05 130.461 162.818 130.499C163.518 130.528 164.209 130.585 164.918 130.643C164.967 130.663 165.02 130.669 165.072 130.662C165.839 130.739 166.587 130.835 167.336 130.931C168.084 131.027 168.842 131.151 169.59 131.286C170.338 131.42 171.067 131.554 171.815 131.708C171.854 131.727 171.863 131.736 171.902 131.717C172.612 131.89 173.331 132.053 174.041 132.245C174.559 132.379 175.086 132.504 175.604 132.676C175.969 132.772 176.314 132.887 176.669 132.993C177.024 133.099 177.35 133.214 177.676 133.329C178.031 133.434 178.357 133.549 178.703 133.664C179.326 133.885 179.95 134.125 180.573 134.365C181.135 134.597 181.692 134.827 182.229 135.057Z" fill="black"/>
</g>
</g>
<g style="mix-blend-mode:screen" opacity="0.4">
<g style="mix-blend-mode:screen" opacity="0.4">
<path d="M208.391 224.631C208.228 224.698 207.499 225.005 206.329 225.408C205.648 225.648 204.832 225.926 203.864 226.185C202.895 226.444 201.782 226.712 200.592 226.923C199.293 227.191 197.98 227.39 196.66 227.518C195.181 227.677 193.696 227.76 192.209 227.768C190.617 227.797 189.026 227.736 187.441 227.585C185.82 227.441 184.18 227.221 182.559 226.923C180.928 226.597 179.316 226.214 177.762 225.753C176.982 225.544 176.214 225.294 175.46 225.005C174.702 224.746 173.964 224.468 173.254 224.18C171.87 223.63 170.519 223.002 169.206 222.3C167.94 221.667 166.808 220.957 165.762 220.314C164.084 219.259 162.49 218.075 160.995 216.774C160.035 215.95 159.479 215.393 159.364 215.278C161.573 216.938 163.904 218.429 166.338 219.739C179.218 226.674 194.262 228.424 208.391 224.631Z" fill="white"/>
</g>
</g>
<g style="mix-blend-mode:screen" opacity="0.4">
<g style="mix-blend-mode:screen" opacity="0.4">
<path d="M217.059 137.293C217.184 137.475 217.644 138.224 218.335 139.394C218.757 140.085 219.179 140.967 219.668 141.974C220.224 143.102 220.72 144.258 221.155 145.437C221.692 146.723 222.085 148.171 222.565 149.687C223.455 153.04 224.027 156.47 224.272 159.931C224.292 160.852 224.33 161.773 224.349 162.694C224.368 163.615 224.32 164.565 224.301 165.485C224.282 166.406 224.167 167.346 224.071 168.267C223.975 169.188 223.898 170.109 223.726 171.011C223.458 172.786 223.09 174.544 222.623 176.277C222.191 177.89 221.672 179.478 221.069 181.035C220.762 181.783 220.512 182.512 220.215 183.193C219.879 183.874 219.572 184.527 219.265 185.16C218.728 186.29 218.132 187.391 217.481 188.459C216.987 189.298 216.446 190.109 215.86 190.886C215.064 192.009 214.555 192.709 214.421 192.882C215.236 191.587 215.985 190.263 216.685 188.91C220.789 180.938 222.962 172.113 223.027 163.146C223.092 154.18 221.047 145.324 217.059 137.293Z" fill="white"/>
</g>
</g>
<g style="mix-blend-mode:screen" opacity="0.4">
<g style="mix-blend-mode:screen" opacity="0.4">
<path d="M129.902 187.787C129.892 187.758 129.912 187.739 129.902 187.73L129.912 187.739L129.902 187.787Z" fill="white"/>
</g>
</g>
<g style="mix-blend-mode:screen" opacity="0.4">
<g style="mix-blend-mode:screen" opacity="0.4">
<path d="M133.49 170.29C133.24 170.847 132.991 171.403 132.751 171.95C131.686 174.469 130.794 177.059 130.084 179.701C129.864 180.535 129.672 181.36 129.499 182.204C129.484 182.258 129.474 182.312 129.47 182.367C129.089 184.1 128.797 185.851 128.598 187.614C128.382 189.414 128.257 191.222 128.223 193.034C128.185 193.936 128.185 194.857 128.223 195.758C128.233 196.67 128.291 197.571 128.358 198.483C128.425 199.394 128.502 200.296 128.617 201.178C128.713 202.099 128.847 203.001 129 203.883C129.154 204.766 129.336 205.658 129.528 206.54C129.624 207.001 129.72 207.461 129.835 207.903C130.257 209.61 130.746 211.308 131.331 212.987C131.331 213.006 131.341 213.035 131.341 213.054C130.785 211.864 130.257 210.665 129.768 209.466C129.538 208.833 129.259 208.305 129.058 207.605L128.761 206.636L128.502 205.706C128.31 205.054 128.147 204.507 127.984 203.768L127.61 201.859L127.514 201.38L127.427 200.852L127.178 198.914L127.149 198.675L127.12 198.377L127.072 197.888C127.024 197.245 126.957 196.603 126.919 195.95L126.9 193.955L126.89 193.466L126.89 193.101L126.9 192.881L126.948 191.912C126.976 191.269 127.034 190.617 127.091 189.965L127.245 188.027L127.283 187.547L127.303 187.375L127.322 187.317L127.331 187.192L127.379 186.953L127.552 185.993L128.329 182.185L128.319 182.367C128.33 182.212 128.356 182.058 128.396 181.907L128.434 181.715L128.55 181.331L128.78 180.564L129.01 179.797L129.135 179.384L129.259 178.991C129.605 177.955 130.017 176.967 130.439 175.969C130.861 174.972 131.351 174.003 131.84 173.034C132.339 172.094 132.914 171.173 133.49 170.29Z" fill="white"/>
</g>
</g>
<g style="mix-blend-mode:screen" opacity="0.4">
<g style="mix-blend-mode:screen" opacity="0.4">
<path d="M164.272 131.738L164.828 131.911L164.732 131.911C164.57 131.881 164.414 131.823 164.272 131.738Z" fill="white"/>
</g>
</g>
<g style="mix-blend-mode:screen" opacity="0.4">
<g style="mix-blend-mode:screen" opacity="0.4">
<path d="M171.38 132.592L171.514 132.65C171.467 132.635 171.422 132.616 171.38 132.592Z" fill="white"/>
</g>
</g>
<g style="mix-blend-mode:screen" opacity="0.4">
<g style="mix-blend-mode:screen" opacity="0.4">
<path d="M171.658 132.678L172.349 132.601C172.283 132.637 172.212 132.663 172.138 132.678C172.064 132.703 171.986 132.716 171.908 132.716L171.869 132.716L171.658 132.678Z" fill="white"/>
</g>
</g>
<g style="mix-blend-mode:screen" opacity="0.4">
<g style="mix-blend-mode:screen" opacity="0.4">
<path d="M182.229 135.057C181.692 134.827 181.135 134.597 180.579 134.367C179.955 134.127 179.341 133.877 178.708 133.666C178.363 133.551 178.037 133.436 177.682 133.331C177.365 133.206 177.01 133.1 176.675 132.995C176.339 132.889 175.975 132.774 175.61 132.678C175.092 132.506 174.564 132.381 174.046 132.247C173.337 132.055 172.617 131.892 171.907 131.719C171.869 131.738 171.859 131.729 171.821 131.71C171.082 131.546 170.334 131.393 169.595 131.287C168.857 131.144 168.099 131.019 167.341 130.933C166.603 130.827 165.845 130.721 165.077 130.664C165.026 130.671 164.973 130.665 164.924 130.645C164.224 130.577 163.533 130.52 162.823 130.501C162.065 130.453 161.327 130.424 160.559 130.424C159.801 130.395 159.053 130.395 158.276 130.424C157.576 130.434 156.857 130.462 156.128 130.52L156.012 130.52C155.638 130.549 155.255 130.568 154.89 130.606C154.497 130.635 154.113 130.673 153.739 130.721C153.001 130.789 152.233 130.885 151.485 131C151.092 131.048 150.698 131.096 150.315 131.172C149.931 131.249 149.538 131.316 149.154 131.374C148.991 131.403 148.837 131.441 148.674 131.47C147.984 131.604 147.274 131.757 146.573 131.921C145.758 132.103 144.952 132.314 144.147 132.544C143.83 132.63 143.523 132.707 143.216 132.822C142.9 132.909 142.612 133.004 142.295 133.11C141.992 133.192 141.694 133.291 141.403 133.407C140.722 133.628 140.031 133.877 139.35 134.136C139.149 134.204 138.938 134.28 138.736 134.367C138.247 134.549 137.777 134.77 137.288 134.971C137.19 135.001 137.097 135.043 137.01 135.096C136.665 135.23 136.329 135.374 135.993 135.537C135.676 135.681 135.36 135.825 135.034 135.997C135.629 135.594 136.242 135.191 136.876 134.846L137.211 134.664L137.163 134.674L137.854 134.29L138.573 133.916L140.022 133.235L140.732 132.909L141.47 132.592C141.94 132.39 142.439 132.199 142.948 131.997L143.715 131.709L144.54 131.441L146.103 130.952L146.295 130.894L146.535 130.827L146.928 130.721L147.715 130.51L148.55 130.309C148.789 130.242 149.096 130.184 149.365 130.127L150.19 129.954L150.986 129.81L152.617 129.561L153.423 129.446L154.267 129.35C154.794 129.283 155.351 129.244 155.907 129.187L155.945 129.187L156.012 129.196L156.128 129.196L156.06 129.187L158.324 129.071L160.531 129.091L162.775 129.187C163.543 129.244 164.272 129.302 165.02 129.379L165.077 129.398L165.576 129.551C165.448 129.48 165.308 129.432 165.164 129.407L165.221 129.407L166.91 129.657L167.332 129.733L167.802 129.801L168.636 129.964L169.48 130.136C169.759 130.184 170.065 130.261 170.324 130.328L172.022 130.741L172.08 130.76C171.93 130.734 171.777 130.737 171.629 130.769C171.533 130.808 171.495 130.827 171.466 130.837L172.08 130.76L172.109 130.769L172.157 130.76L173.452 131.153L174.094 131.374C174.373 131.46 174.545 131.518 174.766 131.604L176.042 132.055L176.675 132.304L177.337 132.582L178.584 133.12C178.785 133.206 179.035 133.321 179.226 133.417L179.821 133.724C180.224 133.935 180.665 134.127 181.039 134.367L182.229 135.057Z" fill="white"/>
</g>
</g>
<defs>
<linearGradient id="paint0_linear" x1="238.122" y1="263.454" x2="238.122" y2="69.0749" gradientUnits="userSpaceOnUse">
<stop stop-color="#2BE0E0"/>
<stop offset="1" stop-color="#E4F4F4"/>
</linearGradient>
<linearGradient id="paint1_linear" x1="95.0633" y1="239.816" x2="299.043" y2="239.816" gradientUnits="userSpaceOnUse">
<stop stop-color="#2BE0E0"/>
<stop offset="1" stop-color="#E4F4F4"/>
</linearGradient>
<linearGradient id="paint2_linear" x1="100.355" y1="107.814" x2="100.355" y2="303.485" gradientUnits="userSpaceOnUse">
<stop stop-color="#2BE0E0"/>
<stop offset="1" stop-color="#E4F4F4"/>
</linearGradient>
<linearGradient id="paint3_linear" x1="254.078" y1="107.772" x2="54.514" y2="107.772" gradientUnits="userSpaceOnUse">
<stop stop-color="#E4F4F4"/>
<stop offset="1" stop-color="#2BE0E0"/>
</linearGradient>
<linearGradient id="paint4_linear" x1="222.882" y1="184.957" x2="161.794" y2="123.869" gradientUnits="userSpaceOnUse">
<stop stop-color="#2BE0E0"/>
<stop offset="1" stop-color="#E4F4F4"/>
</linearGradient>
<linearGradient id="paint5_linear" x1="170.494" y1="222.487" x2="234.598" y2="158.383" gradientUnits="userSpaceOnUse">
<stop stop-color="#2BE0E0"/>
<stop offset="1" stop-color="#E4F4F4"/>
</linearGradient>
<linearGradient id="paint6_linear" x1="130.673" y1="179.34" x2="192.166" y2="240.833" gradientUnits="userSpaceOnUse">
<stop stop-color="#2BE0E0"/>
<stop offset="1" stop-color="#E4F4F4"/>
</linearGradient>
<linearGradient id="paint7_linear" x1="178.97" y1="131.016" x2="116.253" y2="193.733" gradientUnits="userSpaceOnUse">
<stop stop-color="#E4F4F4"/>
<stop offset="1" stop-color="#2BE0E0"/>
</linearGradient>
</defs>
</svg>
